<svg width="208" height="81" viewBox="0 0 208 81" fill="none" xmlns="http://www.w3.org/2000/svg">
<path d="M146.937 3.16901L206.837 78.279" stroke="#124656" stroke-miterlimit="10"/>
<path d="M54.0611 3.16901L1.16406 79.161" stroke="#124656" stroke-miterlimit="10"/>
<path d="M179.027 80.053H86.5513L58.4023 0.422974H141.116C156.121 0.422974 168.427 38.121 174.651 61.638C177.464 72.309 179.027 80.053 179.027 80.053Z" fill="#1C617C"/>
<path d="M132.363 61.6379C135.006 72.2809 136.484 80.0529 136.484 80.0529H90.0191L88.6831 61.6379C88.6831 61.6379 104.554 61.6379 132.363 61.6379Z" fill="#124656"/>
<path d="M179.027 80.0529H154.885C154.885 80.0529 153.322 72.3089 150.508 61.6379H174.65C177.464 72.3089 179.027 80.0529 179.027 80.0529Z" fill="#124656"/>
<path d="M154.885 80.053H136.483C136.483 80.053 124.76 18.227 107.78 4.259C104.853 1.829 101.784 0.421997 98.5723 0.421997H116.987C138.799 0.422997 154.885 80.053 154.885 80.053Z" fill="#EEB331"/>
<path opacity="0.43" d="M154.885 80.0529H136.483C136.483 80.0529 135.005 72.2799 132.362 61.6379H150.508C153.322 72.3089 154.885 80.0529 154.885 80.0529Z" fill="#E75F44"/>
<path d="M20.499 80.053C20.499 80.053 36.595 0.419006 58.403 0.419006C80.211 0.419006 96.308 80.053 96.308 80.053H20.499Z" fill="#124656"/>
<path d="M91.1124 80.053H25.6914C28.5754 65.517 41.5494 5.23999 58.4014 5.23999C75.2534 5.23999 88.2284 65.517 91.1124 80.053Z" fill="#124656"/>
<path d="M82.8284 80.053H42.5063C57.7043 65.457 62.5443 16.352 62.5443 16.352C62.5443 16.352 70.4464 65.635 82.8284 80.053Z" fill="#F5F5F5"/>
<path opacity="0.59" d="M78.0263 80.053H47.7173C59.1423 66.043 62.7803 18.91 62.7803 18.91C62.7803 18.91 68.7193 66.213 78.0263 80.053Z" fill="#BABABA"/>
<path d="M95.6604 80.053H78.0264C68.7194 66.213 62.7794 18.909 62.7794 18.909C62.7794 18.909 59.1414 66.042 47.7174 80.053H34.0054C34.0054 80.053 46.0184 14.721 64.1354 3.16797C82.2664 14.693 95.6604 80.053 95.6604 80.053Z" fill="#F5F5F5"/>
<path d="M38.9224 80.0529L46.2804 61.632L40.2744 80.0529H42.6014L46.2804 71.692L43.5774 80.0529H38.9224Z" fill="#BABABA"/>
<path d="M90.7244 79.95L86.2184 67.337L89.0724 79.95L85.9194 80.053L83.8154 73.695L85.0184 80.053L90.7244 79.95Z" fill="#BABABA"/>
<path d="M68.7964 7.37799L120.733 79.856" stroke="#4BA9BF" stroke-miterlimit="10"/>
<path d="M96.3134 80.053H91.1124C88.2274 65.517 75.2543 5.23997 58.4023 5.23997C41.5503 5.23997 28.5763 65.517 25.6923 80.053H20.5063C20.5063 80.053 36.5913 0.422974 58.4033 0.422974C80.2133 0.422974 96.3134 80.053 96.3134 80.053Z" fill="#459BB5"/>
<path d="M2.21424 75.037H0.115234V80.053H2.21424V75.037Z" fill="#459BB5"/>
<path d="M121.768 75.037H119.669V80.053H121.768V75.037Z" fill="#459BB5"/>
<path d="M207.887 75.037H205.788V80.053H207.887V75.037Z" fill="#459BB5"/>
</svg>
